<svg width="18" height="18" viewBox="0 0 18 18" fill="none" xmlns="http://www.w3.org/2000/svg">
  <path d="M9 1.5C8.4 1.5 7.83 1.74 7.41 2.16C6.99 2.58 6.75 3.15 6.75 3.75V9C6.75 9.6 6.99 10.17 7.41 10.59C7.83 11.01 8.4 11.25 9 11.25C9.6 11.25 10.17 11.01 10.59 10.59C11.01 10.17 11.25 9.6 11.25 9V3.75C11.25 3.15 11.01 2.58 10.59 2.16C10.17 1.74 9.6 1.5 9 1.5Z" stroke="white" stroke-width="1.5" stroke-linecap="round" stroke-linejoin="round"/>
  <path d="M14.25 7.5V9C14.25 10.39 13.7 11.73 12.71 12.71C11.73 13.7 10.39 14.25 9 14.25C7.61 14.25 6.27 13.7 5.29 12.71C4.3 11.73 3.75 10.39 3.75 9V7.5" stroke="white" stroke-width="1.5" stroke-linecap="round" stroke-linejoin="round"/>
  <path d="M9 14.25V16.5" stroke="white" stroke-width="1.5" stroke-linecap="round" stroke-linejoin="round"/>
</svg>
