<svg width="12" height="12" viewBox="0 0 12 12" fill="none" xmlns="http://www.w3.org/2000/svg">
<g clip-path="url(#clip0)">
<path d="M10 6.5C10 9 8.25 10.25 6.17 10.97C6.06 11.01 5.94 11.01 5.83 10.97C3.75 10.25 2 9 2 6.5V3C2 2.87 2.05 2.74 2.15 2.65C2.24 2.55 2.37 2.5 2.5 2.5C3.5 2.5 4.75 1.9 5.62 1.14C5.72 1.05 5.86 1 6 1C6.14 1 6.27 1.05 6.38 1.14C7.25 1.9 8.5 2.5 9.5 2.5C9.63 2.5 9.76 2.55 9.85 2.65C9.95 2.74 10 2.87 10 3V6.5Z" stroke="currentColor" stroke-width="1" stroke-linecap="round" stroke-linejoin="round"/>
</g>
<defs>
<clipPath id="clip0">
<rect width="12" height="12" fill="white"/>
</clipPath>
</defs>
</svg>
