<svg width="16" height="16" viewBox="0 0 16 16" fill="none" xmlns="http://www.w3.org/2000/svg">
  <path d="M8 1.33C7.47 1.33 6.96 1.54 6.59 1.92C6.21 2.29 6 2.8 6 3.33V8C6 8.53 6.21 9.04 6.59 9.41C6.96 9.79 7.47 10 8 10C8.53 10 9.04 9.79 9.41 9.41C9.79 9.04 10 8.53 10 8V3.33C10 2.8 9.79 2.29 9.41 1.92C9.04 1.54 8.53 1.33 8 1.33Z" stroke="white" stroke-width="1.33" stroke-linecap="round" stroke-linejoin="round"/>
  <path d="M12.67 6V8C12.67 9.24 12.18 10.42 11.3 11.3C10.42 12.18 9.24 12.67 8 12.67C6.76 12.67 5.58 12.18 4.7 11.3C3.82 10.42 3.33 9.24 3.33 8V6" stroke="white" stroke-width="1.33" stroke-linecap="round" stroke-linejoin="round"/>
  <path d="M8 12.67V14.67" stroke="white" stroke-width="1.33" stroke-linecap="round" stroke-linejoin="round"/>
</svg>
