<svg width="16" height="16" viewBox="0 0 16 16" fill="none" xmlns="http://www.w3.org/2000/svg">
<g>
<path d="M8 2C7.2 2.8 6.75 3.87 6.75 5C6.75 6.12 7.2 7.2 8 8C8.79 8.79 9.87 9.24 11 9.24C12.12 9.24 13.2 8.79 14 8C14 9.18 13.64 10.34 12.98 11.33C12.32 12.32 11.39 13.08 10.29 13.54C9.2 13.99 7.99 14.11 6.83 13.88C5.66 13.65 4.59 13.08 3.76 12.24C2.92 11.4 2.35 10.33 2.11 9.17C1.88 8 2 6.8 2.46 5.7C2.91 4.61 3.68 3.67 4.66 3.01C5.65 2.35 6.81 2 8 2Z" stroke="currentColor" stroke-width="1.33" stroke-linecap="round" stroke-linejoin="round"/>
</g>
</svg>
