<svg width="20" height="20" viewBox="0 0 20 20" fill="none" xmlns="http://www.w3.org/2000/svg">
  <path d="M10 5V10L13.33 11.67" stroke="white" stroke-width="1.67" stroke-linecap="round" stroke-linejoin="round"/>
  <path d="M1.67 10C1.67 11.65 2.16 13.26 3.08 14.63C4.01 16 5.32 17.07 6.85 17.71C8.38 18.35 10.06 18.52 11.68 18.2C13.31 17.88 14.8 17.09 15.99 15.9C17.18 14.71 17.97 13.22 18.29 11.59C18.61 9.96 18.44 8.28 17.8 6.75C17.16 5.22 16.09 3.91 14.72 2.98C13.35 2.05 11.74 1.56 10.09 1.56C7.76 1.57 5.52 2.49 3.87 4.1L1.67 6.33" stroke="white" stroke-width="1.67" stroke-linecap="round" stroke-linejoin="round"/>
  <path d="M1.67 1.67V6.33H6.33" stroke="white" stroke-width="1.67" stroke-linecap="round" stroke-linejoin="round"/>
</svg>
