<svg width="20" height="20" viewBox="0 0 20 20" fill="none" xmlns="http://www.w3.org/2000/svg">
  <circle cx="10" cy="10" r="2.5" stroke="white" stroke-width="1.5" stroke-linecap="round" stroke-linejoin="round"/>
  <path d="M16.17 12.5C16.06 12.74 16.02 13.01 16.08 13.27C16.13 13.53 16.27 13.76 16.47 13.93L16.52 13.99C16.68 14.14 16.8 14.32 16.88 14.52C16.96 14.72 17 14.93 17 15.15C17 15.37 16.96 15.58 16.88 15.78C16.8 15.98 16.68 16.16 16.52 16.31C16.37 16.47 16.19 16.59 15.99 16.67C15.79 16.75 15.58 16.79 15.36 16.79C15.14 16.79 14.93 16.75 14.73 16.67C14.53 16.59 14.35 16.47 14.2 16.31L14.14 16.26C13.97 16.06 13.74 15.92 13.48 15.87C13.22 15.81 12.95 15.85 12.71 15.96C12.48 16.06 12.28 16.23 12.14 16.44C12.01 16.65 11.94 16.9 11.94 17.16V17.33C11.94 17.78 11.76 18.21 11.44 18.53C11.12 18.85 10.69 19.03 10.24 19.03C9.79 19.03 9.36 18.85 9.04 18.53C8.72 18.21 8.54 17.78 8.54 17.33V17.24C8.53 16.97 8.45 16.71 8.3 16.5C8.15 16.28 7.94 16.12 7.7 16.02C7.46 15.91 7.19 15.87 6.93 15.93C6.67 15.98 6.44 16.12 6.27 16.32L6.21 16.37C6.06 16.53 5.88 16.65 5.68 16.73C5.48 16.81 5.27 16.85 5.05 16.85C4.83 16.85 4.62 16.81 4.42 16.73C4.22 16.65 4.04 16.53 3.89 16.37C3.73 16.22 3.61 16.04 3.53 15.84C3.45 15.64 3.41 15.43 3.41 15.21C3.41 14.99 3.45 14.78 3.53 14.58C3.61 14.38 3.73 14.2 3.89 14.05L3.94 13.99C4.14 13.82 4.28 13.59 4.33 13.33C4.39 13.07 4.35 12.8 4.24 12.56C4.14 12.33 3.97 12.13 3.76 11.99C3.55 11.86 3.3 11.79 3.04 11.79H2.87C2.42 11.79 1.99 11.61 1.67 11.29C1.35 10.97 1.17 10.54 1.17 10.09C1.17 9.64 1.35 9.21 1.67 8.89C1.99 8.57 2.42 8.39 2.87 8.39H2.96C3.23 8.38 3.49 8.3 3.7 8.15C3.92 8 4.08 7.79 4.18 7.55C4.29 7.31 4.33 7.04 4.27 6.78C4.22 6.52 4.08 6.29 3.88 6.12L3.83 6.06C3.67 5.91 3.55 5.73 3.47 5.53C3.39 5.33 3.35 5.12 3.35 4.9C3.35 4.68 3.39 4.47 3.47 4.27C3.55 4.07 3.67 3.89 3.83 3.74C3.98 3.58 4.16 3.46 4.36 3.38C4.56 3.3 4.77 3.26 4.99 3.26C5.21 3.26 5.42 3.3 5.62 3.38C5.82 3.46 6 3.58 6.15 3.74L6.21 3.79C6.38 3.99 6.61 4.13 6.87 4.18C7.13 4.24 7.4 4.2 7.64 4.09H7.7C7.93 3.99 8.13 3.82 8.27 3.61C8.41 3.4 8.48 3.15 8.48 2.89V2.72C8.48 2.27 8.66 1.84 8.98 1.52C9.3 1.2 9.73 1.02 10.18 1.02C10.63 1.02 11.06 1.2 11.38 1.52C11.7 1.84 11.88 2.27 11.88 2.72V2.81C11.88 3.07 11.96 3.32 12.1 3.53C12.24 3.74 12.44 3.91 12.67 4.01C12.91 4.12 13.18 4.16 13.44 4.1C13.7 4.05 13.93 3.91 14.1 3.71L14.16 3.66C14.31 3.5 14.49 3.38 14.69 3.3C14.89 3.22 15.1 3.18 15.32 3.18C15.54 3.18 15.75 3.22 15.95 3.3C16.15 3.38 16.33 3.5 16.48 3.66C16.64 3.81 16.76 3.99 16.84 4.19C16.92 4.39 16.96 4.6 16.96 4.82C16.96 5.04 16.92 5.25 16.84 5.45C16.76 5.65 16.64 5.83 16.48 5.98L16.43 6.04C16.23 6.21 16.09 6.44 16.04 6.7C15.98 6.96 16.02 7.23 16.13 7.47V7.53C16.23 7.76 16.4 7.96 16.61 8.1C16.82 8.24 17.07 8.31 17.33 8.31H17.5C17.95 8.31 18.38 8.49 18.7 8.81C19.02 9.13 19.2 9.56 19.2 10.01C19.2 10.46 19.02 10.89 18.7 11.21C18.38 11.53 17.95 11.71 17.5 11.71H17.41C17.15 11.71 16.9 11.79 16.69 11.93C16.48 12.07 16.31 12.27 16.21 12.5H16.17Z" stroke="white" stroke-width="1.5" stroke-linecap="round" stroke-linejoin="round"/>
</svg>
