<svg width="20" height="20" viewBox="0 0 20 20" fill="none" xmlns="http://www.w3.org/2000/svg">
  <circle cx="7.5" cy="5.83" r="2.5" stroke="white" stroke-width="1.67" stroke-linecap="round" stroke-linejoin="round"/>
  <path d="M2.5 16.67V15C2.5 14.12 2.85 13.27 3.48 12.64C4.1 12.02 4.95 11.67 5.83 11.67H9.17C10.05 11.67 10.9 12.02 11.52 12.64C12.15 13.27 12.5 14.12 12.5 15V16.67" stroke="white" stroke-width="1.67" stroke-linecap="round" stroke-linejoin="round"/>
  <path d="M13.33 2.64C14.02 2.82 14.62 3.21 15.05 3.76C15.49 4.31 15.73 4.98 15.73 5.68C15.73 6.38 15.49 7.06 15.05 7.6C14.62 8.15 14.02 8.55 13.33 8.72" stroke="white" stroke-width="1.67" stroke-linecap="round" stroke-linejoin="round"/>
  <path d="M15.83 11.67C16.52 11.85 17.13 12.24 17.56 12.79C18 13.34 18.24 14.02 18.24 14.72V16.67" stroke="white" stroke-width="1.67" stroke-linecap="round" stroke-linejoin="round"/>
</svg>
